<svg width="847" height="146" viewBox="0 0 847 146" fill="none" xmlns="http://www.w3.org/2000/svg">
    <title>Quizpedia Logo</title>
    <path d="M114 69.9776C114 99.8133 89.8133 124 59.9776 124H54.0224C24.1866 124 7.10802e-06 99.8133 4.49967e-06 69.9776L0 18.5075C-4.10757e-07 13.8089 3.80892 10 8.50746 10L59.9776 10C89.8133 10 114 34.1866 114 64.0224V69.9776Z" fill="#FFD1A4"/>
    <path d="M209.704 107.625L230.864 100.5L249.432 122.955H222.875L209.704 107.625ZM249.216 59.4773C249.216 71.7841 246.823 82.1657 242.037 90.6222C237.251 99.0426 230.792 105.43 222.659 109.784C214.526 114.102 205.458 116.261 195.454 116.261C185.379 116.261 176.275 114.084 168.142 109.73C160.045 105.34 153.604 98.9347 148.818 90.5142C144.068 82.0578 141.693 71.7121 141.693 59.4773C141.693 47.1705 144.068 36.8068 148.818 28.3864C153.604 19.9299 160.045 13.5426 168.142 9.22443C176.275 4.87026 185.379 2.69318 195.454 2.69318C205.458 2.69318 214.526 4.87026 222.659 9.22443C230.792 13.5426 237.251 19.9299 242.037 28.3864C246.823 36.8068 249.216 47.1705 249.216 59.4773ZM218.341 59.4773C218.341 52.8561 217.459 47.2784 215.696 42.7443C213.969 38.1742 211.396 34.7197 207.977 32.3807C204.595 30.0057 200.42 28.8182 195.454 28.8182C190.489 28.8182 186.296 30.0057 182.878 32.3807C179.495 34.7197 176.922 38.1742 175.159 42.7443C173.432 47.2784 172.568 52.8561 172.568 59.4773C172.568 66.0985 173.432 71.6941 175.159 76.2642C176.922 80.7983 179.495 84.2528 182.878 86.6278C186.296 88.9669 190.489 90.1364 195.454 90.1364C200.42 90.1364 204.595 88.9669 207.977 86.6278C211.396 84.2528 213.969 80.7983 215.696 76.2642C217.459 71.6941 218.341 66.0985 218.341 59.4773Z" fill="#EEEEEE"/>
    <path d="M309.843 78.4773V31.8409H339.639V114.75H311.354V98.9886H310.491C308.692 104.278 305.543 108.417 301.045 111.403C296.547 114.354 291.203 115.83 285.014 115.83C279.22 115.83 274.146 114.498 269.792 111.835C265.474 109.172 262.109 105.502 259.698 100.824C257.323 96.1458 256.118 90.7841 256.082 84.7386V31.8409H285.877V78.4773C285.913 82.5795 286.957 85.8002 289.008 88.1392C291.095 90.4782 294.01 91.6477 297.752 91.6477C300.235 91.6477 302.376 91.1259 304.176 90.0824C306.011 89.0028 307.414 87.4915 308.386 85.5483C309.393 83.5691 309.879 81.2121 309.843 78.4773Z" fill="#EEEEEE"/>
    <path d="M347.193 114.75V31.8409H376.988V114.75H347.193ZM362.09 27.2045C358.06 27.2045 354.606 25.8731 351.727 23.2102C348.848 20.5473 347.409 17.3447 347.409 13.6023C347.409 9.85985 348.848 6.65719 351.727 3.99431C354.606 1.33144 358.06 0 362.09 0C366.157 0 369.611 1.33144 372.454 3.99431C375.333 6.65719 376.772 9.85985 376.772 13.6023C376.772 17.3447 375.333 20.5473 372.454 23.2102C369.611 25.8731 366.157 27.2045 362.09 27.2045Z" fill="#EEEEEE"/>
    <path d="M385.433 114.75V98.3409L421.706 54.9432V54.5114H386.728V31.8409H456.899V49.9773L423.865 91.6477V92.0795H458.194V114.75H385.433Z" fill="#EEEEEE"/>
    <path d="M467.071 145.841V31.8409H496.65V46.3068H497.298C498.378 43.5 499.961 40.9271 502.048 38.5881C504.135 36.2131 506.726 34.3239 509.821 32.9204C512.916 31.4811 516.514 30.7614 520.616 30.7614C526.086 30.7614 531.286 32.2188 536.216 35.1335C541.182 38.0483 545.212 42.6364 548.307 48.8977C551.437 55.1591 553.003 63.2917 553.003 73.2955C553.003 82.8674 551.509 90.8021 548.523 97.0994C545.572 103.397 541.613 108.093 536.648 111.188C531.718 114.282 526.302 115.83 520.4 115.83C516.514 115.83 513.041 115.2 509.983 113.94C506.96 112.645 504.369 110.9 502.21 108.705C500.087 106.473 498.45 103.955 497.298 101.148H496.866V145.841H467.071ZM496.219 73.2955C496.219 77.3258 496.74 80.8163 497.784 83.767C498.863 86.6818 500.375 88.9489 502.318 90.5682C504.297 92.1515 506.654 92.9432 509.389 92.9432C512.124 92.9432 514.445 92.1695 516.352 90.6222C518.295 89.0388 519.771 86.7898 520.778 83.875C521.822 80.9242 522.344 77.3977 522.344 73.2955C522.344 69.1932 521.822 65.6847 520.778 62.7699C519.771 59.8191 518.295 57.5701 516.352 56.0227C514.445 54.4394 512.124 53.6477 509.389 53.6477C506.654 53.6477 504.297 54.4394 502.318 56.0227C500.375 57.5701 498.863 59.8191 497.784 62.7699C496.74 65.6847 496.219 69.1932 496.219 73.2955Z" fill="#EEEEEE"/>
    <path d="M597.612 116.261C588.76 116.261 581.131 114.57 574.726 111.188C568.356 107.769 563.445 102.875 559.99 96.5057C556.571 90.1004 554.862 82.4356 554.862 73.5114C554.862 64.947 556.589 57.4621 560.044 51.0568C563.499 44.6515 568.374 39.6676 574.672 36.1051C580.969 32.5426 588.4 30.7614 596.964 30.7614C603.226 30.7614 608.893 31.733 613.967 33.6761C619.041 35.6193 623.377 38.4441 626.976 42.1506C630.574 45.821 633.345 50.2831 635.288 55.5369C637.231 60.7907 638.203 66.7102 638.203 73.2955V80.2045H564.146V63.7955H610.783C610.747 61.4205 610.135 59.3333 608.947 57.5341C607.796 55.6989 606.231 54.2775 604.251 53.2699C602.308 52.2263 600.095 51.7045 597.612 51.7045C595.201 51.7045 592.988 52.2263 590.973 53.2699C588.958 54.2775 587.338 55.6809 586.115 57.4801C584.927 59.2794 584.298 61.3845 584.226 63.7955V81.5C584.226 84.1629 584.784 86.5379 585.899 88.625C587.015 90.7121 588.616 92.3494 590.703 93.5369C592.79 94.7244 595.309 95.3182 598.26 95.3182C600.311 95.3182 602.182 95.0303 603.874 94.4545C605.601 93.8788 607.076 93.0511 608.3 91.9716C609.523 90.8561 610.423 89.5246 610.999 87.9773H638.203C637.267 93.7348 635.054 98.7367 631.564 102.983C628.073 107.193 623.449 110.468 617.692 112.807C611.97 115.11 605.277 116.261 597.612 116.261Z" fill="#EEEEEE"/>
    <path d="M672.773 115.83C666.871 115.83 661.438 114.282 656.472 111.188C651.542 108.093 647.583 103.397 644.597 97.0994C641.646 90.8021 640.171 82.8674 640.171 73.2955C640.171 63.2917 641.718 55.1591 644.813 48.8977C647.943 42.6364 651.974 38.0483 656.904 35.1335C661.869 32.2188 667.087 30.7614 672.557 30.7614C676.659 30.7614 680.258 31.4811 683.352 32.9204C686.447 34.3239 689.038 36.2131 691.125 38.5881C693.212 40.9271 694.796 43.5 695.875 46.3068H696.307V4.20454H726.102V114.75H696.523V101.148H695.875C694.724 103.955 693.068 106.473 690.909 108.705C688.786 110.9 686.195 112.645 683.136 113.94C680.114 115.2 676.659 115.83 672.773 115.83ZM683.784 92.9432C686.519 92.9432 688.858 92.1515 690.801 90.5682C692.78 88.9489 694.292 86.6818 695.335 83.767C696.415 80.8163 696.955 77.3258 696.955 73.2955C696.955 69.1932 696.415 65.6847 695.335 62.7699C694.292 59.8191 692.78 57.5701 690.801 56.0227C688.858 54.4394 686.519 53.6477 683.784 53.6477C681.049 53.6477 678.71 54.4394 676.767 56.0227C674.86 57.5701 673.385 59.8191 672.341 62.7699C671.333 65.6847 670.83 69.1932 670.83 73.2955C670.83 77.3977 671.333 80.9242 672.341 83.875C673.385 86.7898 674.86 89.0388 676.767 90.6222C678.71 92.1695 681.049 92.9432 683.784 92.9432Z" fill="#EEEEEE"/>
    <path d="M733.13 114.75V31.8409H762.926V114.75H733.13ZM748.028 27.2045C743.998 27.2045 740.543 25.8731 737.664 23.2102C734.785 20.5473 733.346 17.3447 733.346 13.6023C733.346 9.85985 734.785 6.65719 737.664 3.99431C740.543 1.33144 743.998 0 748.028 0C752.094 0 755.549 1.33144 758.392 3.99431C761.27 6.65719 762.71 9.85985 762.71 13.6023C762.71 17.3447 761.27 20.5473 758.392 23.2102C755.549 25.8731 752.094 27.2045 748.028 27.2045Z" fill="#EEEEEE"/>
    <path d="M793.609 116.045C788.319 116.045 783.641 115.182 779.575 113.455C775.545 111.691 772.378 109.028 770.075 105.466C767.772 101.903 766.62 97.3693 766.62 91.8636C766.62 87.3295 767.394 83.4612 768.941 80.2585C770.489 77.0199 772.648 74.375 775.419 72.3239C778.19 70.2727 781.41 68.7074 785.081 67.6278C788.787 66.5483 792.781 65.8466 797.064 65.5227C801.706 65.1629 805.43 64.7311 808.237 64.2273C811.08 63.6875 813.131 62.9498 814.39 62.0142C815.65 61.0426 816.279 59.7651 816.279 58.1818V57.9659C816.279 55.8068 815.452 54.1515 813.797 53C812.141 51.8485 810.018 51.2727 807.427 51.2727C804.584 51.2727 802.263 51.9025 800.464 53.1619C798.701 54.3854 797.639 56.2746 797.279 58.8295H769.859C770.219 53.7917 771.82 49.1496 774.663 44.9034C777.542 40.6212 781.734 37.2027 787.24 34.6477C792.745 32.0568 799.618 30.7614 807.859 30.7614C813.797 30.7614 819.122 31.4631 823.836 32.8665C828.55 34.2339 832.563 36.1591 835.873 38.642C839.184 41.089 841.703 43.9678 843.43 47.2784C845.193 50.553 846.075 54.1155 846.075 57.9659V114.75H818.223V103.091H817.575C815.92 106.186 813.904 108.687 811.529 110.594C809.19 112.501 806.51 113.886 803.487 114.75C800.5 115.614 797.207 116.045 793.609 116.045ZM803.325 97.2614C805.592 97.2614 807.715 96.7936 809.694 95.858C811.709 94.9223 813.347 93.5729 814.606 91.8097C815.866 90.0464 816.495 87.9053 816.495 85.3864V78.4773C815.704 78.8011 814.858 79.107 813.958 79.3949C813.095 79.6828 812.159 79.9526 811.152 80.2045C810.18 80.4564 809.137 80.6903 808.021 80.9062C806.941 81.1222 805.808 81.3201 804.62 81.5C802.317 81.8598 800.428 82.4536 798.953 83.2812C797.513 84.0729 796.434 85.0625 795.714 86.25C795.03 87.4015 794.689 88.697 794.689 90.1364C794.689 92.4394 795.498 94.2026 797.118 95.4261C798.737 96.6496 800.806 97.2614 803.325 97.2614Z" fill="#EEEEEE"/>
</svg>
